<?xml version="1.0" standalone="no"?><!DOCTYPE svg PUBLIC "-//W3C//DTD SVG 1.1//EN" "http://www.w3.org/Graphics/SVG/1.1/DTD/svg11.dtd"><svg class="icon" width="20px" height="20.00px" viewBox="0 0 1024 1024" version="1.1" xmlns="http://www.w3.org/2000/svg"><path fill="#333333" d="M819.2 921.6H102.4v-768h460.8V51.2H102.4C44.8 51.2 0 96 0 153.6v768c0 57.6 44.8 102.4 102.4 102.4h716.8c57.6 0 102.4-44.8 102.4-102.4V512h-102.4v409.6z m185.6-761.6L857.6 12.8c-19.2-19.2-51.2-19.2-70.4 0l-70.4 70.4-51.2 51.2-275.2 281.6c-12.8 6.4-19.2 19.2-19.2 32L320 640v25.6c0 6.4 0 6.4 6.4 6.4l6.4 6.4 6.4 6.4 6.4 6.4H384l198.4-51.2c12.8 0 19.2-12.8 25.6-19.2 0 0 6.4 0 6.4-6.4l256-256 70.4-70.4 70.4-70.4c19.2 0 19.2-32-6.4-57.6 6.4 0 6.4 0 0 0zM537.6 556.8l-96 25.6 25.6-96 256-256 70.4 76.8-256 249.6z m326.4-326.4l-70.4-70.4 38.4-38.4L902.4 192l-38.4 38.4z" /></svg>