<?xml version="1.0" standalone="no"?><!DOCTYPE svg PUBLIC "-//W3C//DTD SVG 1.1//EN" "http://www.w3.org/Graphics/SVG/1.1/DTD/svg11.dtd"><svg class="icon" width="20px" height="20.00px" viewBox="0 0 1024 1024" version="1.1" xmlns="http://www.w3.org/2000/svg"><path fill="#333333" d="M512 902.4a390.4 390.4 0 1 1 0-780.8 390.4 390.4 0 0 1 0 780.8z m0-64a326.4 326.4 0 1 0 0-652.8 326.4 326.4 0 0 0 0 652.8z"  /><path fill="#333333" d="M870.4 544a32 32 0 1 1 0-64h102.4a32 32 0 1 1 0 64h-102.4z"  /><path fill="#333333" d="M512 512m-204.8 0a204.8 204.8 0 1 0 409.6 0 204.8 204.8 0 1 0-409.6 0Z"  /><path fill="#333333" d="M544 153.6a32 32 0 1 1-64 0V51.2a32 32 0 1 1 64 0v102.4zM480 870.4a32 32 0 1 1 64 0v102.4a32 32 0 1 1-64 0v-102.4zM153.6 480a32 32 0 1 1 0 64H51.2a32 32 0 1 1 0-64h102.4z"  /></svg>