<?xml version="1.0" standalone="no"?><!DOCTYPE svg PUBLIC "-//W3C//DTD SVG 1.1//EN" "http://www.w3.org/Graphics/SVG/1.1/DTD/svg11.dtd"><svg class="icon" width="20px" height="20.00px" viewBox="0 0 1024 1024" version="1.1" xmlns="http://www.w3.org/2000/svg"><path fill="#333333" d="M789.333333 469.333333c-12.8 0-25.6 4.266667-38.4 8.533334-17.066667-34.133333-51.2-55.466667-93.866666-55.466667-12.8 0-25.6 4.266667-38.4 8.533333-17.066667-29.866667-51.2-46.933333-89.6-46.933333h-21.333334V277.333333C512 217.6 465.066667 170.666667 405.333333 170.666667S298.666667 217.6 298.666667 277.333333v260.266667c-38.4-17.066667-85.333333-17.066667-119.466667 8.533333-25.6 17.066667-42.666667 46.933333-46.933333 76.8-4.266667 29.866667 4.266667 64 21.333333 89.6 0 0 46.933333 68.266667 89.6 123.733334l8.533333 8.533333c34.133333 42.666667 106.666667 140.8 221.866667 162.133333 29.866667 4.266667 72.533333 12.8 119.466667 12.8 42.666667 0 85.333333-4.266667 132.266666-17.066666 102.4-29.866667 174.933333-128 174.933334-247.466667v-183.466667c-4.266667-55.466667-51.2-102.4-110.933334-102.4z"  /><path fill="#333333" d="M213.333333 277.333333c25.6 0 42.666667-17.066667 42.666667-42.666666C256 153.6 324.266667 85.333333 405.333333 85.333333S554.666667 153.6 554.666667 234.666667c0 25.6 17.066667 42.666667 42.666666 42.666666s42.666667-17.066667 42.666667-42.666666c0-128-106.666667-234.666667-234.666667-234.666667S170.666667 106.666667 170.666667 234.666667c0 25.6 21.333333 42.666667 42.666666 42.666666z"  /></svg>