<?xml version="1.0" standalone="no"?><!DOCTYPE svg PUBLIC "-//W3C//DTD SVG 1.1//EN" "http://www.w3.org/Graphics/SVG/1.1/DTD/svg11.dtd"><svg class="icon" width="20px" height="20.00px" viewBox="0 0 1024 1024" version="1.1" xmlns="http://www.w3.org/2000/svg"><path fill="#333333" d="M803.84 500.053333c-100.693333-102.4-225.28-157.013333-368.64-162.133333V162.133333c0-13.653333-8.533333-25.6-20.48-32.426666-13.653333-5.12-27.306667-1.706667-37.546667 8.533333L47.786667 477.866667c-11.946667 13.653333-13.653333 34.133333 0 47.786666l331.093333 358.4c10.24 10.24 23.893333 13.653333 37.546667 8.533334s22.186667-17.066667 22.186666-32.426667v-187.733333c69.973333-10.24 146.773333-6.826667 226.986667 10.24 83.626667 17.066667 180.906667 93.866667 290.133333 228.693333 3.413333 3.413333 8.533333 6.826667 13.653334 6.826667 1.706667 0 5.12 0 6.826666-1.706667 6.826667-3.413333 11.946667-10.24 10.24-17.066667-15.36-158.72-76.8-293.546667-182.613333-399.36z"  /></svg>