<?xml version="1.0" standalone="no"?><!DOCTYPE svg PUBLIC "-//W3C//DTD SVG 1.1//EN" "http://www.w3.org/Graphics/SVG/1.1/DTD/svg11.dtd"><svg class="icon" width="20px" height="20.00px" viewBox="0 0 1024 1024" version="1.1" xmlns="http://www.w3.org/2000/svg"><path fill="#333333" d="M143.616 47.104l830.08 830.08c26.24 26.24 26.24 69.888 0 96.128-26.24 26.24-69.888 26.24-96.128 0L47.488 143.232c-17.536-26.24-17.536-69.888 0-96.128 26.24-26.24 69.888-26.24 96.128 0z m0 0"  /><path fill="#333333" d="M982.528 143.232L152.32 973.312c-26.24 26.24-69.888 26.24-96.128 0-26.24-26.24-26.24-69.888 0-96.128L886.4 47.104c26.24-26.24 69.888-26.24 96.128 0 17.408 26.24 17.408 69.888 0 96.128z m0 0"  /></svg>