<?xml version="1.0" standalone="no"?><!DOCTYPE svg PUBLIC "-//W3C//DTD SVG 1.1//EN" "http://www.w3.org/Graphics/SVG/1.1/DTD/svg11.dtd"><svg class="icon" width="20px" height="20.00px" viewBox="0 0 1024 1024" version="1.1" xmlns="http://www.w3.org/2000/svg"><path fill="#333333" d="M1003.52 0H20.48A20.48 20.48 0 0 0 0 20.48v437.76h113.92V134.4a20.48 20.48 0 0 1 20.48-20.48h755.2a20.48 20.48 0 0 1 20.48 20.48v755.2a20.48 20.48 0 0 1-20.48 20.48H565.76V1024h437.76a20.48 20.48 0 0 0 20.48-20.48V20.48a20.48 20.48 0 0 0-20.48-20.48zM707.84 550.4a49.92 49.92 0 0 0 99.84 0l-5.76-282.88a50.56 50.56 0 0 0-46.72-46.72H472.32a49.92 49.92 0 0 0-46.72 46.72 50.56 50.56 0 0 0 46.72 47.36h170.88l-211.2 211.2H0V1024h497.92V589.44l209.92-209.92zM384 910.08H113.92V640H384z" /></svg>