<?xml version="1.0" standalone="no"?><!DOCTYPE svg PUBLIC "-//W3C//DTD SVG 1.1//EN" "http://www.w3.org/Graphics/SVG/1.1/DTD/svg11.dtd"><svg class="icon" width="20px" height="20.00px" viewBox="0 0 1024 1024" version="1.1" xmlns="http://www.w3.org/2000/svg"><path fill="#333333" d="M603.136 541.184C571.328 561.984 560 602.56 560 624L560 640C560 666.496 538.496 688 512 688 485.504 688 464 666.496 464 640L464 623.712C464.128 575.168 492.832 523.2 528.832 495.104 584.032 452.064 608 436.992 608 384 608 331.008 564.992 288 512 288 459.136 288 416.16 330.848 416 384L416 400C416 426.496 394.496 448 368 448 341.504 448 320 426.496 320 400L320 384C320 278.016 406.048 192 512 192 617.984 192 704 278.016 704 384 704 446.56 684.544 487.904 603.136 541.184M512 832C485.504 832 464 810.496 464 784 464 757.504 485.504 736 512 736 538.496 736 560 757.504 560 784 560 810.496 538.496 832 512 832M512 64C264.736 64 64 264.736 64 512 64 759.264 264.736 960 512 960 759.264 960 960 759.264 960 512 960 264.736 759.264 64 512 64" /></svg>