<?xml version="1.0" standalone="no"?><!DOCTYPE svg PUBLIC "-//W3C//DTD SVG 1.1//EN" "http://www.w3.org/Graphics/SVG/1.1/DTD/svg11.dtd"><svg class="icon" width="20px" height="20.00px" viewBox="0 0 1024 1024" version="1.1" xmlns="http://www.w3.org/2000/svg"><path fill="#333333" d="M678.72 323.2c15.68 0 29.12-13.44 29.12-29.12s-13.44-29.12-29.12-29.12-29.12 13.44-29.12 29.12 13.44 29.12 29.12 29.12z m157.44-211.2H187.84a27.84 27.84 0 0 0-27.84 27.84v712.64c0 15.36 12.48 27.84 27.84 27.84h648.64c15.36 0 27.84-12.48 27.84-27.84V139.84a28.352 28.352 0 0 0-28.16-27.84z m-264.96 155.2c11.2 0 22.4-6.72 29.12-17.92 6.72-11.2 6.72-24.64 0-35.84 13.44-13.44 31.36-24.64 49.28-29.12 4.48 11.2 17.92 15.68 29.12 15.68s22.4-6.72 29.12-17.92c20.16 6.72 35.84 15.68 49.28 29.12-6.72 11.2-6.72 24.64 0 35.84 6.72 11.2 17.92 17.92 29.12 17.92 2.24 8.96 4.48 17.92 4.48 29.12 0 8.96-2.24 17.92-4.48 26.88-11.2 0-22.4 6.72-29.12 17.92-6.72 11.2-6.72 24.64 0 35.84-13.44 13.44-31.36 24.64-49.28 29.12-4.48-11.2-15.68-17.92-29.12-17.92s-24.64 6.72-29.12 20.16c-20.16-6.72-35.84-15.68-49.28-29.12 6.72-11.2 6.72-24.64 0-35.84-6.72-11.2-17.92-17.92-29.12-17.92-2.24-8.96-4.48-20.16-4.48-29.12 0-11.2 2.24-20.16 4.48-26.88zM224 300.8c0-16 12.8-28.8 28.8-28.8h230.08c16 0 28.8 12.8 28.8 28.8v6.4c0 16-12.8 28.8-28.8 28.8H252.8c-16 0-28.8-12.8-28.8-28.8v-6.4z m25.6 99.2h300.48c14.08 0 25.6 11.52 25.6 25.6v12.48c0 14.08-11.52 25.6-25.6 25.6H249.6c-14.08 0-25.6-11.52-25.6-25.6v-12.48c0-14.08 11.52-25.6 25.6-25.6zM224 555.52c0-15.04 12.16-27.52 27.52-27.52h392.96c15.04 0 27.52 12.16 27.52 27.52v8.96c0 15.04-12.16 27.52-27.52 27.52H251.52c-15.36 0-27.52-12.16-27.52-27.52v-8.96z m576 133.44c0 17.28-14.08 31.04-31.04 31.04H255.04c-16.96 0-31.04-14.08-31.04-31.04v-1.6c0-17.28 14.08-31.04 31.04-31.04h513.6c17.28 0 31.04 14.08 31.04 31.04v1.6z" /></svg>