<?xml version="1.0" standalone="no"?><!DOCTYPE svg PUBLIC "-//W3C//DTD SVG 1.1//EN" "http://www.w3.org/Graphics/SVG/1.1/DTD/svg11.dtd"><svg class="icon" width="20px" height="20.00px" viewBox="0 0 1024 1024" version="1.1" xmlns="http://www.w3.org/2000/svg"><path fill="#333333" d="M860.16 311.808c-35.84-61.44-85.504-109.568-146.944-145.408S584.704 113.152 512 113.152s-140.288 17.408-202.24 53.248c-61.44 35.84-110.08 83.456-145.92 145.408-35.84 61.44-54.272 127.488-54.272 200.192S128 650.752 163.84 712.192s84.48 109.568 145.92 145.408 129.536 53.248 202.24 53.248 139.776-17.408 201.216-53.248 111.104-83.456 146.944-145.408c35.84-61.44 54.272-127.488 54.272-200.192S896 373.248 860.16 311.808z m-355.328 452.608c-103.936 0-196.096-62.464-234.496-159.232-8.704-22.528 2.048-47.616 24.576-56.32 22.528-8.704 47.616 2.048 56.32 24.576 25.088 63.488 85.504 103.936 153.6 103.936 91.136 0 165.376-74.24 165.376-165.376s-74.24-165.376-165.376-165.376c-29.696 0-58.368 7.68-83.968 22.528-20.48 12.288-47.616 5.12-59.392-15.36-12.288-20.48-5.12-47.616 15.36-59.392 38.4-23.04 82.944-34.816 128-34.816 139.264 0 252.416 113.152 252.416 252.416s-113.152 252.416-252.416 252.416z m-68.608-190.464V438.272c0-13.312 14.336-21.504 26.112-14.848l117.248 67.584c11.776 6.656 11.776 23.552 0 30.208L462.336 588.8c-11.776 7.168-26.112-1.536-26.112-14.848z"  /></svg>