<?xml version="1.0" standalone="no"?><!DOCTYPE svg PUBLIC "-//W3C//DTD SVG 1.1//EN" "http://www.w3.org/Graphics/SVG/1.1/DTD/svg11.dtd"><svg class="icon" width="20px" height="20.00px" viewBox="0 0 1024 1024" version="1.1" xmlns="http://www.w3.org/2000/svg"><path fill="#333333" d="M723.5046 384.434649c-7.766894-7.767917-17.84953-11.570523-28.0171-11.975752-11.277858-0.466628-22.682605 3.332908-31.326473 11.975752l-194.121186 194.10072L359.856369 468.353944c-8.641821-8.642844-20.064988-12.44238-31.348985-11.975752-10.165524 0.405229-20.22974 4.207835-27.993564 11.975752-7.765871 7.743358-11.546987 17.825994-11.973706 27.991518-0.445138 11.283997 3.334955 22.709211 11.973706 31.327496l139.865491 139.864468c8.193613 8.192589 18.928095 12.300141 29.661553 12.300141 10.733459 0 21.467941-4.107551 29.68202-12.300141l223.783763-223.783763c8.618285-8.617261 12.421914-20.043499 11.954263-31.327496C735.051587 402.261667 731.250004 392.179031 723.5046 384.434649zM512.000512 64.431451c-247.165286 0-447.568549 200.404286-447.568549 447.568549 0 247.159146 200.404286 447.567525 447.568549 447.567525 247.162216 0 447.566502-200.408379 447.566502-447.567525C959.567014 264.835737 759.162728 64.431451 512.000512 64.431451zM512.000512 875.64823c-200.508663 0-363.650277-163.143661-363.650277-363.64823 0-200.506617 163.140591-363.649254 363.650277-363.649254 200.505593 0 363.647207 163.142637 363.647207 363.649254C875.647719 712.505593 712.506105 875.64823 512.000512 875.64823z" /></svg>