<?xml version="1.0" standalone="no"?><!DOCTYPE svg PUBLIC "-//W3C//DTD SVG 1.1//EN" "http://www.w3.org/Graphics/SVG/1.1/DTD/svg11.dtd"><svg class="icon" width="20px" height="20.00px" viewBox="0 0 1024 1024" version="1.1" xmlns="http://www.w3.org/2000/svg"><path fill="#333333" d="M414.72 179.2v61.44c0 15.36 15.36 30.72 30.72 30.72h512c15.36 0 30.72-15.36 30.72-30.72V179.2c0-15.36-15.36-30.72-30.72-30.72h-512c-15.36 0-30.72 10.24-30.72 30.72zM988.16 542.72V481.28c0-15.36-15.36-30.72-30.72-30.72h-414.72c-15.36 0-30.72 15.36-30.72 30.72v61.44c0 15.36 15.36 30.72 30.72 30.72h414.72c15.36 0 30.72-15.36 30.72-30.72zM414.72 788.48v61.44c0 15.36 15.36 30.72 30.72 30.72h512c15.36 0 30.72-15.36 30.72-30.72v-61.44c0-15.36-15.36-30.72-30.72-30.72h-512c-15.36 0-30.72 10.24-30.72 30.72zM332.8 256L56.32 471.04c-25.6 20.48-25.6 61.44 0 81.92L332.8 768c25.6 20.48 66.56 0 66.56-40.96V296.96C394.24 256 358.4 230.4 332.8 256z" /></svg>