<?xml version="1.0" standalone="no"?><!DOCTYPE svg PUBLIC "-//W3C//DTD SVG 1.1//EN" "http://www.w3.org/Graphics/SVG/1.1/DTD/svg11.dtd"><svg class="icon" width="20px" height="20.00px" viewBox="0 0 1024 1024" version="1.1" xmlns="http://www.w3.org/2000/svg"><path fill="#333333" d="M755.2 454.4C755.2 275.2 614.4 128 441.6 128S128 275.2 128 454.4s140.8 326.4 313.6 326.4 313.6-147.2 313.6-326.4z m160 550.4l-192-198.4c-76.8 64-172.8 102.4-281.6 102.4C198.4 908.8 0 704 0 454.4 0 204.8 198.4 0 441.6 0c243.2 0 441.6 204.8 441.6 454.4 0 96-25.6 185.6-76.8 256l6.4 6.4 192 198.4c25.6 25.6 25.6 64 0 89.6-25.6 25.6-64 25.6-89.6 0z" /></svg>