<?xml version="1.0" standalone="no"?><!DOCTYPE svg PUBLIC "-//W3C//DTD SVG 1.1//EN" "http://www.w3.org/Graphics/SVG/1.1/DTD/svg11.dtd"><svg class="icon" width="20px" height="20.00px" viewBox="0 0 1024 1024" version="1.1" xmlns="http://www.w3.org/2000/svg"><path fill="#333333" d="M528.6 167.5c-12.3-5.9-27-4.1-37.6 4.6L290.4 339.3H162.7c-9.2-0.1-18 3.5-24.4 10-6.6 6.5-10.3 15.4-10.3 24.7v279.3c0.4 18.7 15.4 33.8 34.1 34.4h129.6l200.7 166.6c6.3 5.2 14.2 8 22.4 8 5.2 0 10.3-1.2 14.9-3.4 12.2-5.8 20-18.1 20.1-31.5V199.1c-0.1-13.5-7.9-25.7-20.1-31.5h-1.1z m134.5 174.3c-16.7-5-34.6 3.2-41.8 19.1-7.2 15.9-1.6 34.7 13.1 44 36.5 22.4 57.5 63.1 54.5 105.8 0 82.6-49 109.8-50.5 111-15.7 9.3-21.6 29.2-13.5 45.6 8.1 16.4 27.5 23.7 44.4 16.9 3.7-2 89.2-46.2 89.2-173.5 2.9-69.9-34.1-135.3-95.4-168.9z m108.6-102.3c-15.6-7.4-34.3-2.2-43.8 12.2-9.5 14.4-7 33.7 6 45.1 3.7 2.6 93.2 63.6 93.2 215.3 0 151.7-86 212.7-89.2 215-12.4 5.9-20.2 18.5-19.9 32.3 0.3 13.7 8.6 26 21.2 31.4 12.6 5.4 27.3 2.9 37.4-6.4 4.9-3.2 120.1-82.3 120.1-273.5s-119-268.4-124.1-271.5h-0.9z m0 0" /></svg>