<?xml version="1.0" standalone="no"?><!DOCTYPE svg PUBLIC "-//W3C//DTD SVG 1.1//EN" "http://www.w3.org/Graphics/SVG/1.1/DTD/svg11.dtd"><svg class="icon" width="20px" height="20.00px" viewBox="0 0 1024 1024" version="1.1" xmlns="http://www.w3.org/2000/svg"><path fill="#333333" d="M215.04 855.04c-76.8 0-117.76-15.36-148.48-51.2l-15.36-25.6c-5.12-10.24-25.6-102.4-20.48-209.92 10.24-158.72 40.96-266.24 92.16-327.68 35.84-40.96 81.92-71.68 153.6-97.28 66.56-15.36 128-20.48 194.56-25.6h15.36c81.92 0 158.72 10.24 225.28 30.72 30.72 10.24 117.76 35.84 163.84 92.16 81.92 97.28 87.04 291.84 92.16 368.64v25.6l20.48 30.72c5.12 5.12 15.36 15.36 15.36 35.84 0 25.6-20.48 46.08-46.08 46.08h-419.84c-10.24 25.6-25.6 46.08-46.08 61.44-25.6 15.36-51.2 20.48-92.16 20.48-20.48-10.24-40.96-10.24-56.32-15.36-15.36 10.24-40.96 25.6-66.56 30.72-5.12 5.12-30.72 10.24-61.44 10.24zM107.52 768c15.36 15.36 30.72 30.72 107.52 30.72 30.72 0 51.2-5.12 51.2-5.12 20.48-5.12 40.96-20.48 56.32-30.72l10.24-5.12h10.24c10.24 0 35.84 5.12 61.44 5.12 30.72 0 46.08-5.12 66.56-15.36 15.36-10.24 25.6-25.6 25.6-46.08l5.12-20.48h450.56l-30.72-46.08v-10.24-25.6c-5.12-66.56-10.24-250.88-81.92-332.8-25.6-30.72-76.8-56.32-138.24-76.8-61.44-15.36-133.12-25.6-209.92-25.6h-10.24c-61.44 0-128 10.24-189.44 20.48-56.32 20.48-102.4 46.08-128 81.92-46.08 51.2-71.68 153.6-81.92 296.96-5.12 92.16 10.24 168.96 15.36 189.44l10.24 15.36z m860.16-122.88z" /></svg>