<?xml version="1.0" standalone="no"?><!DOCTYPE svg PUBLIC "-//W3C//DTD SVG 1.1//EN" "http://www.w3.org/Graphics/SVG/1.1/DTD/svg11.dtd"><svg class="icon" width="20px" height="20.00px" viewBox="0 0 1024 1024" version="1.1" xmlns="http://www.w3.org/2000/svg"><path fill="#333333" d="M199.68 998.4c-10.24 0-15.36 0-25.6-5.12l-5.12-5.12-112.64-112.64v-10.24c0-5.12 0-15.36 5.12-20.48 0-5.12 5.12-10.24 10.24-15.36l153.6-153.6V665.6c0-10.24 5.12-20.48 10.24-25.6l15.36-15.36c-10.24-15.36-20.48-30.72-20.48-46.08 0-15.36 10.24-35.84 20.48-51.2L368.64 409.6c25.6-25.6 71.68-25.6 97.28-5.12l10.24-15.36c5.12-5.12 15.36-10.24 20.48-10.24 0-10.24 10.24-25.6 20.48-35.84L650.24 204.8c20.48-15.36 46.08-20.48 71.68-15.36l30.72-35.84c10.24-10.24 25.6-15.36 40.96-15.36L906.24 25.6c10.24-5.12 25.6-5.12 35.84-5.12 10.24 5.12 15.36 10.24 20.48 15.36 5.12 5.12 5.12 15.36 5.12 20.48 0 10.24-5.12 20.48-10.24 25.6l-102.4 102.4v5.12c0 15.36-5.12 30.72-15.36 40.96l-30.72 30.72c0 5.12 5.12 15.36 5.12 20.48 0 25.6-15.36 40.96-20.48 46.08L660.48 460.8c-5.12 5.12-15.36 10.24-20.48 15.36l46.08 51.2c15.36 10.24 40.96 25.6 71.68 30.72 5.12 0 25.6 5.12 40.96 25.6 10.24 15.36 15.36 30.72 10.24 51.2l-25.6 81.92c-5.12 20.48-15.36 35.84-35.84 40.96-15.36 10.24-35.84 10.24-51.2 5.12-46.08-5.12-87.04-20.48-128-51.2l-46.08 46.08 20.48 92.16c5.12 35.84-10.24 56.32-40.96 66.56l-30.72 15.36c-10.24 0-30.72 5.12-51.2 0h-5.12l-5.12-5.12c0-5.12-10.24-15.36-15.36-30.72l-20.48-97.28h-10.24c-5.12 0-20.48 0-30.72-10.24l-5.12-5.12-5.12 5.12 5.12 5.12v10.24c0 5.12 5.12 20.48-5.12 30.72l-97.28 153.6c-5.12 0-10.24 10.24-25.6 10.24z m-92.16-138.24l87.04 87.04 81.92-138.24-20.48-25.6 40.96-40.96 5.12-46.08 56.32 51.2 5.12-5.12 15.36-15.36 15.36 15.36c10.24 10.24 20.48 20.48 20.48 30.72l20.48 107.52c0 5.12 0 5.12 5.12 5.12h15.36l30.72-10.24c10.24-5.12 10.24-5.12 10.24-15.36l-25.6-112.64 92.16-92.16 15.36 15.36c35.84 30.72 81.92 51.2 128 56.32h20.48c5.12-5.12 10.24-5.12 10.24-15.36l25.6-81.92c-5.12-10.24-15.36-10.24-15.36-10.24-46.08-10.24-76.8-30.72-102.4-46.08l-10.24-5.12V563.2l-76.8-76.8 30.72-30.72 15.36 5.12c5.12 0 15.36 0 20.48-10.24l138.24-138.24V307.2v-5.12l-15.36-15.36 15.36-15.36 35.84-35.84H768l25.6-25.6h-5.12l-51.2 51.2-20.48-25.6c-10.24-5.12-25.6-5.12-35.84 0l-133.12 133.12c-5.12 5.12-5.12 10.24-5.12 15.36l15.36 15.36-35.84 35.84-15.36-10.24-35.84 46.08-30.72-30.72c-10.24-10.24-30.72-10.24-40.96 0l-117.76 117.76c-5.12 5.12-5.12 10.24-5.12 15.36 0 5.12 0 10.24 5.12 15.36l30.72 30.72-40.96 40.96 15.36 15.36-179.2 184.32z m-5.12 5.12z" /></svg>