<?xml version="1.0" standalone="no"?><!DOCTYPE svg PUBLIC "-//W3C//DTD SVG 1.1//EN" "http://www.w3.org/Graphics/SVG/1.1/DTD/svg11.dtd"><svg class="icon" width="20px" height="20.00px" viewBox="0 0 1024 1024" version="1.1" xmlns="http://www.w3.org/2000/svg"><path fill="#333333" d="M578.56 148.48h-512c-15.36 0-30.72 10.24-30.72 30.72v61.44c0 15.36 15.36 25.6 30.72 25.6h506.88c15.36 0 30.72-15.36 30.72-30.72V179.2c5.12-20.48-10.24-30.72-25.6-30.72zM66.56 573.44h414.72c15.36 0 30.72-15.36 30.72-30.72V481.28c0-15.36-15.36-30.72-30.72-30.72H66.56c-15.36 0-30.72 15.36-30.72 30.72v61.44c0 15.36 15.36 30.72 30.72 30.72zM578.56 757.76h-512c-15.36 0-30.72 15.36-30.72 30.72v61.44c0 15.36 15.36 30.72 30.72 30.72h506.88c15.36 0 30.72-15.36 30.72-30.72v-61.44c5.12-20.48-10.24-30.72-25.6-30.72zM629.76 296.96v430.08c0 40.96 35.84 61.44 66.56 40.96l276.48-215.04c25.6-20.48 25.6-61.44 0-81.92L691.2 256c-25.6-25.6-61.44 0-61.44 40.96z" /></svg>